<?xml version="1.0" encoding="UTF-8"?>
<svg id="Layer_2" data-name="Layer 2" xmlns="http://www.w3.org/2000/svg" viewBox="0 0 55.14 8.64">
  <defs>
    <style>
      .cls-1 {
        fill: #fff;
      }
    </style>
  </defs>
  <g id="Layer_1-2" data-name="Layer 1">
    <g>
      <path class="cls-1" d="m7.93,2.61c-.21-.52-.49-.98-.87-1.37-.37-.39-.8-.7-1.3-.91-.5-.22-1.05-.33-1.64-.33s-1.14.11-1.64.33c-.5.21-.94.51-1.31.9s-.66.85-.86,1.37c-.21.52-.31,1.1-.31,1.72s.1,1.2.31,1.72c.2.53.49.98.86,1.37s.81.69,1.31.91c.5.21,1.05.32,1.64.32s1.14-.11,1.64-.32c.5-.22.93-.52,1.3-.91.38-.4.66-.85.87-1.38.2-.52.3-1.09.3-1.71s-.1-1.18-.3-1.71Zm-1.23,2.93c-.14.37-.33.7-.58.97-.25.28-.54.49-.88.64-.34.16-.71.23-1.12.23s-.78-.07-1.12-.23c-.34-.15-.64-.36-.89-.63-.25-.27-.45-.6-.58-.97-.14-.38-.21-.79-.21-1.23s.07-.86.21-1.23c.13-.37.33-.69.58-.96.25-.28.55-.49.89-.64.34-.15.71-.23,1.12-.23s.78.08,1.12.23c.34.15.63.37.88.64.25.28.44.6.58.97.14.38.21.78.21,1.22s-.07.85-.21,1.22Z"/>
      <path class="cls-1" d="m14.15,2.22l-1.91,4.5-1.83-4.5h-1.34l2.67,6.3h.89l2.79-6.3h-1.27Z"/>
      <path class="cls-1" d="m22.06,5.14c0-.44-.06-.85-.2-1.22s-.34-.69-.6-.97c-.26-.27-.57-.48-.92-.64-.35-.15-.73-.23-1.14-.23-.46,0-.89.08-1.29.24-.39.17-.73.4-1.02.7-.28.3-.5.65-.66,1.06-.16.41-.24.86-.24,1.36,0,.62.14,1.17.42,1.65.29.48.68.86,1.18,1.14.5.27,1.07.41,1.72.41.3,0,.6-.04.91-.12.3-.09.6-.2.87-.35.28-.14.51-.31.7-.5l-.62-.88c-.31.28-.6.46-.87.57-.27.1-.56.15-.87.15-.44,0-.83-.08-1.16-.26-.34-.18-.6-.43-.78-.75-.14-.24-.23-.52-.26-.83h4.82v-.53Zm-1.25-.46h-3.52c.03-.18.09-.35.16-.5.15-.31.37-.55.67-.72.3-.16.66-.24,1.09-.24.27,0,.53.06.76.18.23.12.42.28.57.49.16.21.24.44.27.71v.08Z"/>
      <path class="cls-1" d="m26.96,2.13c-.12-.03-.25-.04-.39-.04-.3,0-.58.07-.86.22-.27.14-.52.34-.73.58-.14.16-.25.34-.33.53v-1.2h-1.25v6.3h1.25v-3.48c0-.23.04-.44.13-.64.09-.2.21-.37.36-.52.14-.14.32-.26.51-.34.2-.09.4-.13.62-.13.11,0,.23.01.34.04.12.03.22.06.32.1l.32-1.34c-.07-.03-.17-.06-.29-.08Z"/>
      <path class="cls-1" d="m37.57.67v7.85h-1.92V.41c.07,0,.15,0,.22.01.57.05,1.14.13,1.7.25Z"/>
      <path class="cls-1" d="m42.17,2.02c.55.19,1.1.37,1.66.53.14.04.28.08.43.11l-2.09-.64Z"/>
      <path class="cls-1" d="m45.16,3.63c-.23-.38-.52-.7-.87-.96-.01,0-.02,0-.03-.01-.15-.03-.29-.07-.43-.11-.56-.16-1.11-.34-1.66-.53-.66,0-1.25.14-1.77.43-.52.29-.92.68-1.22,1.18-.3.49-.45,1.06-.45,1.7s.15,1.21.45,1.7c.3.5.7.89,1.22,1.18.52.29,1.11.43,1.77.43s1.25-.14,1.77-.43c.52-.29.92-.68,1.22-1.18.29-.49.44-1.06.44-1.7s-.15-1.21-.44-1.7Zm-1.69,2.55c-.13.25-.31.45-.53.59-.23.14-.48.22-.77.22s-.55-.08-.77-.22c-.23-.14-.41-.34-.54-.59s-.19-.53-.18-.85c-.01-.32.05-.61.18-.86s.31-.45.54-.59c.22-.15.48-.22.77-.22s.54.07.77.22c.22.14.4.34.53.59.12.25.18.54.18.86s-.06.6-.18.85Z"/>
      <path class="cls-1" d="m55.14,3.58l-1.68,4.94h-1.41l-1.3-3.23-1.32,3.23h-1.42l-1.77-5.37c.69.14,1.39.26,2.09.36l.68,2.39.91-2.22c.57.05,1.14.08,1.71.09l.92,2.1.59-2.09h.01c.12,0,.23-.01.35-.01.55-.02,1.11-.06,1.64-.19Z"/>
    </g>
    <path class="cls-1" d="m30.47,1.92v1.68h3.25v1.71h-3.25v3.21h-2.04V1.48c.31-.13.62-.23.95-.32.36-.1.72-.19,1.09-.27.08,0,.15-.02.23-.04,1.16-.23,2.33-.41,3.51-.44v1.51h-3.74Z"/>
  </g>
</svg>